<mxfile host="app.diagrams.net" modified="2022-07-26T03:21:33.983Z" agent="5.0 (Macintosh; Intel Mac OS X 10_15_7) AppleWebKit/537.36 (KHTML, like Gecko) Chrome/103.0.0.0 Safari/537.36" etag="gQpeLKDZ8H0ov_21yX7o" version="20.1.1" type="github">
  <diagram id="20zDZgV9sf-Oyvgb4a60" name="Page-1">
    <mxGraphModel dx="1298" dy="882" grid="1" gridSize="10" guides="1" tooltips="1" connect="1" arrows="1" fold="1" page="1" pageScale="1" pageWidth="827" pageHeight="1169" math="0" shadow="0">
      <root>
        <mxCell id="0" />
        <mxCell id="1" parent="0" />
        <mxCell id="78yN0oEL4DZ1Gsr8O2MP-61" value="Table-Checksum" style="rounded=1;whiteSpace=wrap;html=1;shadow=0;fillColor=#fad9d5;strokeColor=#ae4132;align=center;" vertex="1" parent="1">
          <mxGeometry x="239.75" y="1148" width="590" height="40" as="geometry" />
        </mxCell>
        <mxCell id="78yN0oEL4DZ1Gsr8O2MP-46" value="CDH集群（5.14.2）" style="rounded=0;whiteSpace=wrap;html=1;shadow=0;fillColor=#b1ddf0;strokeColor=#10739e;verticalAlign=top;" vertex="1" parent="1">
          <mxGeometry x="240" y="970" width="590" height="150" as="geometry" />
        </mxCell>
        <mxCell id="YC1pgDmq5oyz4lVh5C-_-7" style="rounded=0;orthogonalLoop=1;jettySize=auto;html=1;entryX=0;entryY=0.25;entryDx=0;entryDy=0;exitX=1;exitY=1;exitDx=0;exitDy=0;" parent="1" source="YC1pgDmq5oyz4lVh5C-_-1" target="YC1pgDmq5oyz4lVh5C-_-2" edge="1">
          <mxGeometry relative="1" as="geometry" />
        </mxCell>
        <mxCell id="YC1pgDmq5oyz4lVh5C-_-1" value="AeroSpike Cluster" style="rounded=0;whiteSpace=wrap;html=1;" parent="1" vertex="1">
          <mxGeometry x="40" y="140" width="120" height="60" as="geometry" />
        </mxCell>
        <mxCell id="YC1pgDmq5oyz4lVh5C-_-9" value="export" style="edgeStyle=none;rounded=0;orthogonalLoop=1;jettySize=auto;html=1;" parent="1" source="YC1pgDmq5oyz4lVh5C-_-2" target="YC1pgDmq5oyz4lVh5C-_-8" edge="1">
          <mxGeometry relative="1" as="geometry" />
        </mxCell>
        <mxCell id="YC1pgDmq5oyz4lVh5C-_-2" value="Export Tools" style="rounded=0;whiteSpace=wrap;html=1;" parent="1" vertex="1">
          <mxGeometry x="200" y="210" width="120" height="60" as="geometry" />
        </mxCell>
        <mxCell id="YC1pgDmq5oyz4lVh5C-_-6" style="rounded=0;orthogonalLoop=1;jettySize=auto;html=1;entryX=0;entryY=0.75;entryDx=0;entryDy=0;exitX=1;exitY=0;exitDx=0;exitDy=0;" parent="1" source="YC1pgDmq5oyz4lVh5C-_-4" target="YC1pgDmq5oyz4lVh5C-_-2" edge="1">
          <mxGeometry relative="1" as="geometry" />
        </mxCell>
        <mxCell id="YC1pgDmq5oyz4lVh5C-_-4" value="AeroSpike Cluster" style="rounded=0;whiteSpace=wrap;html=1;" parent="1" vertex="1">
          <mxGeometry x="40" y="280" width="120" height="60" as="geometry" />
        </mxCell>
        <mxCell id="YC1pgDmq5oyz4lVh5C-_-14" style="edgeStyle=none;rounded=0;orthogonalLoop=1;jettySize=auto;html=1;entryX=0;entryY=0.75;entryDx=0;entryDy=0;exitX=1;exitY=0;exitDx=0;exitDy=0;" parent="1" source="YC1pgDmq5oyz4lVh5C-_-8" target="YC1pgDmq5oyz4lVh5C-_-13" edge="1">
          <mxGeometry relative="1" as="geometry" />
        </mxCell>
        <mxCell id="YC1pgDmq5oyz4lVh5C-_-15" value="put" style="edgeLabel;html=1;align=center;verticalAlign=middle;resizable=0;points=[];" parent="YC1pgDmq5oyz4lVh5C-_-14" vertex="1" connectable="0">
          <mxGeometry x="-0.0258" y="5" relative="1" as="geometry">
            <mxPoint y="1" as="offset" />
          </mxGeometry>
        </mxCell>
        <mxCell id="YC1pgDmq5oyz4lVh5C-_-17" value="" style="edgeStyle=none;rounded=0;orthogonalLoop=1;jettySize=auto;html=1;exitX=1;exitY=1;exitDx=0;exitDy=0;" parent="1" source="YC1pgDmq5oyz4lVh5C-_-8" target="YC1pgDmq5oyz4lVh5C-_-16" edge="1">
          <mxGeometry relative="1" as="geometry" />
        </mxCell>
        <mxCell id="YC1pgDmq5oyz4lVh5C-_-8" value="Csv/Hfile" style="rounded=0;whiteSpace=wrap;html=1;" parent="1" vertex="1">
          <mxGeometry x="390" y="210" width="120" height="60" as="geometry" />
        </mxCell>
        <mxCell id="YC1pgDmq5oyz4lVh5C-_-19" value="" style="edgeStyle=none;rounded=0;orthogonalLoop=1;jettySize=auto;html=1;" parent="1" source="YC1pgDmq5oyz4lVh5C-_-13" target="YC1pgDmq5oyz4lVh5C-_-18" edge="1">
          <mxGeometry relative="1" as="geometry" />
        </mxCell>
        <mxCell id="YC1pgDmq5oyz4lVh5C-_-13" value="CDP" style="rounded=0;whiteSpace=wrap;html=1;" parent="1" vertex="1">
          <mxGeometry x="640" y="100" width="120" height="60" as="geometry" />
        </mxCell>
        <mxCell id="YC1pgDmq5oyz4lVh5C-_-23" value="" style="edgeStyle=none;rounded=0;orthogonalLoop=1;jettySize=auto;html=1;exitX=1;exitY=0;exitDx=0;exitDy=0;" parent="1" source="YC1pgDmq5oyz4lVh5C-_-16" target="YC1pgDmq5oyz4lVh5C-_-22" edge="1">
          <mxGeometry relative="1" as="geometry" />
        </mxCell>
        <mxCell id="YC1pgDmq5oyz4lVh5C-_-16" value="Create HBase Table" style="rounded=0;whiteSpace=wrap;html=1;" parent="1" vertex="1">
          <mxGeometry x="640" y="310" width="120" height="60" as="geometry" />
        </mxCell>
        <mxCell id="YC1pgDmq5oyz4lVh5C-_-20" value="" style="edgeStyle=none;rounded=0;orthogonalLoop=1;jettySize=auto;html=1;" parent="1" source="YC1pgDmq5oyz4lVh5C-_-18" target="YC1pgDmq5oyz4lVh5C-_-16" edge="1">
          <mxGeometry relative="1" as="geometry" />
        </mxCell>
        <mxCell id="YC1pgDmq5oyz4lVh5C-_-21" value="load" style="edgeLabel;html=1;align=center;verticalAlign=middle;resizable=0;points=[];" parent="YC1pgDmq5oyz4lVh5C-_-20" vertex="1" connectable="0">
          <mxGeometry x="0.08" y="-3" relative="1" as="geometry">
            <mxPoint as="offset" />
          </mxGeometry>
        </mxCell>
        <mxCell id="YC1pgDmq5oyz4lVh5C-_-18" value="Mapreduece加工Hfile" style="rounded=0;whiteSpace=wrap;html=1;" parent="1" vertex="1">
          <mxGeometry x="640" y="200" width="120" height="60" as="geometry" />
        </mxCell>
        <mxCell id="YC1pgDmq5oyz4lVh5C-_-25" value="" style="edgeStyle=none;rounded=0;orthogonalLoop=1;jettySize=auto;html=1;" parent="1" source="YC1pgDmq5oyz4lVh5C-_-22" target="YC1pgDmq5oyz4lVh5C-_-24" edge="1">
          <mxGeometry relative="1" as="geometry" />
        </mxCell>
        <mxCell id="YC1pgDmq5oyz4lVh5C-_-22" value="Create local Index" style="rounded=0;whiteSpace=wrap;html=1;" parent="1" vertex="1">
          <mxGeometry x="827" y="210" width="120" height="60" as="geometry" />
        </mxCell>
        <mxCell id="YC1pgDmq5oyz4lVh5C-_-24" value="结束" style="rounded=0;whiteSpace=wrap;html=1;" parent="1" vertex="1">
          <mxGeometry x="980" y="210" width="120" height="60" as="geometry" />
        </mxCell>
        <mxCell id="78yN0oEL4DZ1Gsr8O2MP-4" value="TableA" style="edgeStyle=none;rounded=0;orthogonalLoop=1;jettySize=auto;html=1;" edge="1" parent="1" source="78yN0oEL4DZ1Gsr8O2MP-1" target="78yN0oEL4DZ1Gsr8O2MP-3">
          <mxGeometry relative="1" as="geometry" />
        </mxCell>
        <mxCell id="78yN0oEL4DZ1Gsr8O2MP-1" value="Source Cluster&lt;br&gt;（CDH5.14.2）" style="rounded=0;whiteSpace=wrap;html=1;" vertex="1" parent="1">
          <mxGeometry x="63" y="450" width="120" height="60" as="geometry" />
        </mxCell>
        <mxCell id="78yN0oEL4DZ1Gsr8O2MP-6" value="TableA" style="edgeStyle=none;rounded=0;orthogonalLoop=1;jettySize=auto;html=1;" edge="1" parent="1" source="78yN0oEL4DZ1Gsr8O2MP-2" target="78yN0oEL4DZ1Gsr8O2MP-5">
          <mxGeometry relative="1" as="geometry" />
        </mxCell>
        <mxCell id="78yN0oEL4DZ1Gsr8O2MP-2" value="Destination Cluster&lt;br&gt;（CDP7.1.7 SP1）" style="rounded=0;whiteSpace=wrap;html=1;" vertex="1" parent="1">
          <mxGeometry x="63" y="560" width="120" height="60" as="geometry" />
        </mxCell>
        <mxCell id="78yN0oEL4DZ1Gsr8O2MP-9" value="checksum" style="edgeStyle=none;rounded=0;orthogonalLoop=1;jettySize=auto;html=1;exitX=1;exitY=0.5;exitDx=0;exitDy=0;entryX=0;entryY=0.25;entryDx=0;entryDy=0;" edge="1" parent="1" source="78yN0oEL4DZ1Gsr8O2MP-3" target="78yN0oEL4DZ1Gsr8O2MP-8">
          <mxGeometry relative="1" as="geometry" />
        </mxCell>
        <mxCell id="78yN0oEL4DZ1Gsr8O2MP-3" value="sum(hash(concat(c1,c2..cn)))&lt;br&gt;输出整表的Checksum值" style="rounded=0;whiteSpace=wrap;html=1;" vertex="1" parent="1">
          <mxGeometry x="260" y="450" width="190" height="60" as="geometry" />
        </mxCell>
        <mxCell id="78yN0oEL4DZ1Gsr8O2MP-10" value="checksum" style="edgeStyle=none;rounded=0;orthogonalLoop=1;jettySize=auto;html=1;entryX=0;entryY=0.75;entryDx=0;entryDy=0;exitX=1;exitY=0.5;exitDx=0;exitDy=0;" edge="1" parent="1" source="78yN0oEL4DZ1Gsr8O2MP-5" target="78yN0oEL4DZ1Gsr8O2MP-8">
          <mxGeometry relative="1" as="geometry" />
        </mxCell>
        <mxCell id="78yN0oEL4DZ1Gsr8O2MP-5" value="sum(hash(concat(c1,c2..cn)))&lt;br&gt;输出整表的Checksum值" style="rounded=0;whiteSpace=wrap;html=1;" vertex="1" parent="1">
          <mxGeometry x="260" y="560" width="190" height="60" as="geometry" />
        </mxCell>
        <mxCell id="78yN0oEL4DZ1Gsr8O2MP-12" value="" style="edgeStyle=none;rounded=0;orthogonalLoop=1;jettySize=auto;html=1;" edge="1" parent="1" source="78yN0oEL4DZ1Gsr8O2MP-8" target="78yN0oEL4DZ1Gsr8O2MP-11">
          <mxGeometry relative="1" as="geometry" />
        </mxCell>
        <mxCell id="78yN0oEL4DZ1Gsr8O2MP-8" value="Table Checksum Compare" style="whiteSpace=wrap;html=1;rounded=0;" vertex="1" parent="1">
          <mxGeometry x="560" y="510" width="140" height="60" as="geometry" />
        </mxCell>
        <mxCell id="78yN0oEL4DZ1Gsr8O2MP-14" value="是" style="edgeStyle=none;rounded=0;orthogonalLoop=1;jettySize=auto;html=1;" edge="1" parent="1" source="78yN0oEL4DZ1Gsr8O2MP-11" target="78yN0oEL4DZ1Gsr8O2MP-13">
          <mxGeometry relative="1" as="geometry" />
        </mxCell>
        <mxCell id="78yN0oEL4DZ1Gsr8O2MP-16" value="否" style="edgeStyle=none;rounded=0;orthogonalLoop=1;jettySize=auto;html=1;" edge="1" parent="1" source="78yN0oEL4DZ1Gsr8O2MP-11" target="78yN0oEL4DZ1Gsr8O2MP-15">
          <mxGeometry relative="1" as="geometry" />
        </mxCell>
        <mxCell id="78yN0oEL4DZ1Gsr8O2MP-11" value="判断是否一致" style="rhombus;whiteSpace=wrap;html=1;rounded=0;" vertex="1" parent="1">
          <mxGeometry x="740" y="500" width="80" height="80" as="geometry" />
        </mxCell>
        <mxCell id="78yN0oEL4DZ1Gsr8O2MP-13" value="输出checksum结果" style="whiteSpace=wrap;html=1;rounded=0;" vertex="1" parent="1">
          <mxGeometry x="880" y="510" width="120" height="60" as="geometry" />
        </mxCell>
        <mxCell id="78yN0oEL4DZ1Gsr8O2MP-20" value="" style="edgeStyle=none;rounded=0;orthogonalLoop=1;jettySize=auto;html=1;" edge="1" parent="1" source="78yN0oEL4DZ1Gsr8O2MP-15" target="78yN0oEL4DZ1Gsr8O2MP-19">
          <mxGeometry relative="1" as="geometry" />
        </mxCell>
        <mxCell id="78yN0oEL4DZ1Gsr8O2MP-15" value="进入表单列checksum校验" style="whiteSpace=wrap;html=1;rounded=0;" vertex="1" parent="1">
          <mxGeometry x="720" y="622" width="120" height="50" as="geometry" />
        </mxCell>
        <mxCell id="78yN0oEL4DZ1Gsr8O2MP-22" value="" style="edgeStyle=none;rounded=0;orthogonalLoop=1;jettySize=auto;html=1;" edge="1" parent="1" source="78yN0oEL4DZ1Gsr8O2MP-19" target="78yN0oEL4DZ1Gsr8O2MP-21">
          <mxGeometry relative="1" as="geometry" />
        </mxCell>
        <mxCell id="78yN0oEL4DZ1Gsr8O2MP-19" value="sum(hash(c1))，sum(hash(c2))，sum(hash(cn))&amp;nbsp; &amp;nbsp;" style="whiteSpace=wrap;html=1;rounded=0;" vertex="1" parent="1">
          <mxGeometry x="720" y="700" width="120" height="60" as="geometry" />
        </mxCell>
        <mxCell id="78yN0oEL4DZ1Gsr8O2MP-24" value="是" style="edgeStyle=none;rounded=0;orthogonalLoop=1;jettySize=auto;html=1;" edge="1" parent="1" source="78yN0oEL4DZ1Gsr8O2MP-21" target="78yN0oEL4DZ1Gsr8O2MP-23">
          <mxGeometry relative="1" as="geometry" />
        </mxCell>
        <mxCell id="78yN0oEL4DZ1Gsr8O2MP-26" value="否" style="edgeStyle=none;rounded=0;orthogonalLoop=1;jettySize=auto;html=1;" edge="1" parent="1" source="78yN0oEL4DZ1Gsr8O2MP-21" target="78yN0oEL4DZ1Gsr8O2MP-25">
          <mxGeometry relative="1" as="geometry" />
        </mxCell>
        <mxCell id="78yN0oEL4DZ1Gsr8O2MP-21" value="判断单列Checksum是否一致" style="rhombus;whiteSpace=wrap;html=1;rounded=0;" vertex="1" parent="1">
          <mxGeometry x="890" y="690" width="130" height="80" as="geometry" />
        </mxCell>
        <mxCell id="78yN0oEL4DZ1Gsr8O2MP-23" value="记录校验一致的库表" style="whiteSpace=wrap;html=1;rounded=0;" vertex="1" parent="1">
          <mxGeometry x="1066" y="700" width="120" height="60" as="geometry" />
        </mxCell>
        <mxCell id="78yN0oEL4DZ1Gsr8O2MP-25" value="记录校验不一致的列信息" style="whiteSpace=wrap;html=1;rounded=0;" vertex="1" parent="1">
          <mxGeometry x="895" y="812" width="120" height="60" as="geometry" />
        </mxCell>
        <mxCell id="78yN0oEL4DZ1Gsr8O2MP-31" value="Sqoop" style="edgeStyle=none;rounded=0;orthogonalLoop=1;jettySize=auto;html=1;exitX=1;exitY=0.5;exitDx=0;exitDy=0;" edge="1" parent="1" source="78yN0oEL4DZ1Gsr8O2MP-27" target="78yN0oEL4DZ1Gsr8O2MP-30">
          <mxGeometry relative="1" as="geometry" />
        </mxCell>
        <mxCell id="78yN0oEL4DZ1Gsr8O2MP-27" value="Oracle" style="rounded=0;whiteSpace=wrap;html=1;" vertex="1" parent="1">
          <mxGeometry x="40" y="1000" width="120" height="40" as="geometry" />
        </mxCell>
        <mxCell id="78yN0oEL4DZ1Gsr8O2MP-32" value="PUT" style="edgeStyle=none;rounded=0;orthogonalLoop=1;jettySize=auto;html=1;entryX=0;entryY=0.5;entryDx=0;entryDy=0;exitX=1;exitY=0.5;exitDx=0;exitDy=0;" edge="1" parent="1" source="78yN0oEL4DZ1Gsr8O2MP-28" target="78yN0oEL4DZ1Gsr8O2MP-30">
          <mxGeometry relative="1" as="geometry">
            <mxPoint x="150" y="1070" as="sourcePoint" />
          </mxGeometry>
        </mxCell>
        <mxCell id="78yN0oEL4DZ1Gsr8O2MP-28" value="Parquet File" style="rounded=0;whiteSpace=wrap;html=1;" vertex="1" parent="1">
          <mxGeometry x="40" y="1050" width="120" height="40" as="geometry" />
        </mxCell>
        <mxCell id="78yN0oEL4DZ1Gsr8O2MP-33" value="Sqoop" style="edgeStyle=none;rounded=0;orthogonalLoop=1;jettySize=auto;html=1;entryX=0;entryY=0.75;entryDx=0;entryDy=0;" edge="1" parent="1" target="78yN0oEL4DZ1Gsr8O2MP-30">
          <mxGeometry relative="1" as="geometry">
            <mxPoint x="160" y="1120" as="sourcePoint" />
          </mxGeometry>
        </mxCell>
        <mxCell id="78yN0oEL4DZ1Gsr8O2MP-29" value="PostgreSQL" style="rounded=0;whiteSpace=wrap;html=1;" vertex="1" parent="1">
          <mxGeometry x="40" y="1100" width="120" height="40" as="geometry" />
        </mxCell>
        <mxCell id="78yN0oEL4DZ1Gsr8O2MP-35" value="Hive ETL" style="edgeStyle=none;rounded=0;orthogonalLoop=1;jettySize=auto;html=1;" edge="1" parent="1" source="78yN0oEL4DZ1Gsr8O2MP-30" target="78yN0oEL4DZ1Gsr8O2MP-34">
          <mxGeometry relative="1" as="geometry" />
        </mxCell>
        <mxCell id="78yN0oEL4DZ1Gsr8O2MP-30" value="SDL层" style="rounded=0;whiteSpace=wrap;html=1;" vertex="1" parent="1">
          <mxGeometry x="270" y="1040" width="120" height="60" as="geometry" />
        </mxCell>
        <mxCell id="78yN0oEL4DZ1Gsr8O2MP-37" value="Hive ETL" style="edgeStyle=none;rounded=0;orthogonalLoop=1;jettySize=auto;html=1;" edge="1" parent="1" source="78yN0oEL4DZ1Gsr8O2MP-34" target="78yN0oEL4DZ1Gsr8O2MP-36">
          <mxGeometry relative="1" as="geometry" />
        </mxCell>
        <mxCell id="78yN0oEL4DZ1Gsr8O2MP-34" value="TML层" style="rounded=0;whiteSpace=wrap;html=1;" vertex="1" parent="1">
          <mxGeometry x="479" y="1040" width="120" height="60" as="geometry" />
        </mxCell>
        <mxCell id="78yN0oEL4DZ1Gsr8O2MP-42" value="Java Tools" style="edgeStyle=none;rounded=0;orthogonalLoop=1;jettySize=auto;html=1;entryX=0;entryY=0.5;entryDx=0;entryDy=0;exitX=1;exitY=0.5;exitDx=0;exitDy=0;" edge="1" parent="1" source="78yN0oEL4DZ1Gsr8O2MP-36" target="78yN0oEL4DZ1Gsr8O2MP-40">
          <mxGeometry relative="1" as="geometry" />
        </mxCell>
        <mxCell id="78yN0oEL4DZ1Gsr8O2MP-43" value="Hive" style="edgeStyle=none;rounded=0;orthogonalLoop=1;jettySize=auto;html=1;entryX=0;entryY=0.5;entryDx=0;entryDy=0;exitX=1;exitY=0.5;exitDx=0;exitDy=0;" edge="1" parent="1" source="78yN0oEL4DZ1Gsr8O2MP-36" target="78yN0oEL4DZ1Gsr8O2MP-38">
          <mxGeometry relative="1" as="geometry" />
        </mxCell>
        <mxCell id="78yN0oEL4DZ1Gsr8O2MP-44" value="Hive" style="edgeStyle=none;rounded=0;orthogonalLoop=1;jettySize=auto;html=1;entryX=0;entryY=0.5;entryDx=0;entryDy=0;" edge="1" parent="1" source="78yN0oEL4DZ1Gsr8O2MP-36" target="78yN0oEL4DZ1Gsr8O2MP-39">
          <mxGeometry relative="1" as="geometry" />
        </mxCell>
        <mxCell id="78yN0oEL4DZ1Gsr8O2MP-45" value="Sqoop" style="edgeStyle=none;rounded=0;orthogonalLoop=1;jettySize=auto;html=1;entryX=0;entryY=0.5;entryDx=0;entryDy=0;exitX=1;exitY=0.5;exitDx=0;exitDy=0;" edge="1" parent="1" source="78yN0oEL4DZ1Gsr8O2MP-36" target="78yN0oEL4DZ1Gsr8O2MP-41">
          <mxGeometry relative="1" as="geometry" />
        </mxCell>
        <mxCell id="78yN0oEL4DZ1Gsr8O2MP-36" value="IDL层" style="rounded=0;whiteSpace=wrap;html=1;" vertex="1" parent="1">
          <mxGeometry x="681" y="1040" width="120" height="60" as="geometry" />
        </mxCell>
        <mxCell id="78yN0oEL4DZ1Gsr8O2MP-38" value="ElasticSearch" style="rounded=0;whiteSpace=wrap;html=1;" vertex="1" parent="1">
          <mxGeometry x="940" y="1021.5" width="120" height="40" as="geometry" />
        </mxCell>
        <mxCell id="78yN0oEL4DZ1Gsr8O2MP-39" value="HBase" style="rounded=0;whiteSpace=wrap;html=1;" vertex="1" parent="1">
          <mxGeometry x="940" y="1071.5" width="120" height="40" as="geometry" />
        </mxCell>
        <mxCell id="78yN0oEL4DZ1Gsr8O2MP-40" value="Aerospike" style="rounded=0;whiteSpace=wrap;html=1;" vertex="1" parent="1">
          <mxGeometry x="940" y="968.5" width="120" height="40" as="geometry" />
        </mxCell>
        <mxCell id="78yN0oEL4DZ1Gsr8O2MP-41" value="Oracle" style="rounded=0;whiteSpace=wrap;html=1;" vertex="1" parent="1">
          <mxGeometry x="940" y="1121.5" width="120" height="40" as="geometry" />
        </mxCell>
        <mxCell id="78yN0oEL4DZ1Gsr8O2MP-47" value="CDP集群（7.1.7-SP1）" style="rounded=0;whiteSpace=wrap;html=1;shadow=0;fillColor=#d0cee2;strokeColor=#56517e;verticalAlign=top;" vertex="1" parent="1">
          <mxGeometry x="240" y="1221" width="590" height="139" as="geometry" />
        </mxCell>
        <mxCell id="78yN0oEL4DZ1Gsr8O2MP-51" value="Hive ETL" style="edgeStyle=none;rounded=0;orthogonalLoop=1;jettySize=auto;html=1;exitX=1;exitY=0.5;exitDx=0;exitDy=0;entryX=0;entryY=0.5;entryDx=0;entryDy=0;" edge="1" parent="1" source="78yN0oEL4DZ1Gsr8O2MP-48" target="78yN0oEL4DZ1Gsr8O2MP-49">
          <mxGeometry relative="1" as="geometry">
            <mxPoint x="470" y="1281" as="targetPoint" />
          </mxGeometry>
        </mxCell>
        <mxCell id="78yN0oEL4DZ1Gsr8O2MP-48" value="SDL层" style="rounded=0;whiteSpace=wrap;html=1;" vertex="1" parent="1">
          <mxGeometry x="269.5" y="1251" width="120" height="60" as="geometry" />
        </mxCell>
        <mxCell id="78yN0oEL4DZ1Gsr8O2MP-52" value="Hive ETL" style="edgeStyle=none;rounded=0;orthogonalLoop=1;jettySize=auto;html=1;entryX=0;entryY=0.5;entryDx=0;entryDy=0;exitX=1;exitY=0.5;exitDx=0;exitDy=0;" edge="1" parent="1" source="78yN0oEL4DZ1Gsr8O2MP-49" target="78yN0oEL4DZ1Gsr8O2MP-50">
          <mxGeometry relative="1" as="geometry">
            <mxPoint x="600" y="1291" as="sourcePoint" />
          </mxGeometry>
        </mxCell>
        <mxCell id="78yN0oEL4DZ1Gsr8O2MP-49" value="TML层" style="rounded=0;whiteSpace=wrap;html=1;" vertex="1" parent="1">
          <mxGeometry x="478.5" y="1251" width="120" height="60" as="geometry" />
        </mxCell>
        <mxCell id="78yN0oEL4DZ1Gsr8O2MP-50" value="IDL层" style="rounded=0;whiteSpace=wrap;html=1;" vertex="1" parent="1">
          <mxGeometry x="680.5" y="1251" width="120" height="60" as="geometry" />
        </mxCell>
        <mxCell id="78yN0oEL4DZ1Gsr8O2MP-53" value="" style="edgeStyle=none;rounded=0;orthogonalLoop=1;jettySize=auto;html=1;exitX=0.057;exitY=1.05;exitDx=0;exitDy=0;exitPerimeter=0;entryX=0.25;entryY=0;entryDx=0;entryDy=0;" edge="1" parent="1" source="78yN0oEL4DZ1Gsr8O2MP-59" target="78yN0oEL4DZ1Gsr8O2MP-48">
          <mxGeometry relative="1" as="geometry">
            <mxPoint x="330" y="1270" as="targetPoint" />
          </mxGeometry>
        </mxCell>
        <mxCell id="78yN0oEL4DZ1Gsr8O2MP-70" value="distcp" style="edgeLabel;html=1;align=center;verticalAlign=middle;resizable=0;points=[];" vertex="1" connectable="0" parent="78yN0oEL4DZ1Gsr8O2MP-53">
          <mxGeometry x="-0.5667" y="1" relative="1" as="geometry">
            <mxPoint as="offset" />
          </mxGeometry>
        </mxCell>
        <mxCell id="78yN0oEL4DZ1Gsr8O2MP-57" value="PUT" style="edgeStyle=none;rounded=0;orthogonalLoop=1;jettySize=auto;html=1;entryX=0;entryY=0.5;entryDx=0;entryDy=0;" edge="1" parent="1" source="78yN0oEL4DZ1Gsr8O2MP-56" target="78yN0oEL4DZ1Gsr8O2MP-48">
          <mxGeometry relative="1" as="geometry" />
        </mxCell>
        <mxCell id="78yN0oEL4DZ1Gsr8O2MP-56" value="Parquet File" style="rounded=0;whiteSpace=wrap;html=1;" vertex="1" parent="1">
          <mxGeometry x="40" y="1261" width="120" height="40" as="geometry" />
        </mxCell>
        <mxCell id="78yN0oEL4DZ1Gsr8O2MP-59" value="Airflow ETL DAG" style="rounded=0;whiteSpace=wrap;html=1;shadow=0;" vertex="1" parent="1">
          <mxGeometry x="269.5" y="999.5" width="530.5" height="30" as="geometry" />
        </mxCell>
        <mxCell id="78yN0oEL4DZ1Gsr8O2MP-60" value="Airflow ETL DAG" style="rounded=0;whiteSpace=wrap;html=1;shadow=0;" vertex="1" parent="1">
          <mxGeometry x="269.5" y="1320" width="530.5" height="30" as="geometry" />
        </mxCell>
        <mxCell id="78yN0oEL4DZ1Gsr8O2MP-66" value="" style="shape=flexArrow;endArrow=classic;startArrow=classic;html=1;rounded=0;dashed=1;dashPattern=1 1;" edge="1" parent="1">
          <mxGeometry width="100" height="100" relative="1" as="geometry">
            <mxPoint x="740" y="1220" as="sourcePoint" />
            <mxPoint x="740" y="1120" as="targetPoint" />
          </mxGeometry>
        </mxCell>
        <mxCell id="78yN0oEL4DZ1Gsr8O2MP-68" value="" style="shape=flexArrow;endArrow=classic;startArrow=classic;html=1;rounded=0;dashed=1;dashPattern=1 1;" edge="1" parent="1">
          <mxGeometry width="100" height="100" relative="1" as="geometry">
            <mxPoint x="538" y="1220" as="sourcePoint" />
            <mxPoint x="538" y="1120" as="targetPoint" />
          </mxGeometry>
        </mxCell>
        <mxCell id="78yN0oEL4DZ1Gsr8O2MP-69" value="" style="shape=flexArrow;endArrow=classic;startArrow=classic;html=1;rounded=0;dashed=1;dashPattern=1 1;" edge="1" parent="1">
          <mxGeometry width="100" height="100" relative="1" as="geometry">
            <mxPoint x="330" y="1220" as="sourcePoint" />
            <mxPoint x="329.5" y="1120" as="targetPoint" />
          </mxGeometry>
        </mxCell>
      </root>
    </mxGraphModel>
  </diagram>
</mxfile>
